# xmcd
#
# Track frame offsets:
#	150
#	15210
#	28978
#	43069
#	52194
#	57843
#	71525
#	94221
#	109860
#	122345
#	137649
#	150962
#	166405
#
# Disc length: 2483 seconds
#
# Revision: 0
# Processed by: cddbd v1.5.2PL0 Copyright (c) Steve Scherf et al.
# Submitted via: audiograbber 1.83.01
#
DISCID=a609b10d
DTITLE=Heavy Trash - Going Way Out With Heavy Trash
DYEAR=2007
DGENRE=Blues Rock
TTITLE0=That Ain't Right
TTITLE1=Double Line
TTITLE2=Way Out
TTITLE3=I Want Oblivion
TTITLE4=I Want Refuge
TTITLE5=Outside Chance
TTITLE6=You Can't Win
TTITLE7=Crying Tramp
TTITLE8=Crazy Pritty Baby
TTITLE9=Kissy Baby
TTITLE10=She Baby
TTITLE11=You Got What I Need
TTITLE12=They Were Kings
EXTD=
EXTT0=
EXTT1=
EXTT2=
EXTT3=
EXTT4=
EXTT5=
EXTT6=
EXTT7=
EXTT8=
EXTT9=
EXTT10=
EXTT11=
EXTT12=
PLAYORDER=
